# xmcd CD database file
#
# Track frame offsets:
#	150
#	28043
#	49192
#	69649
#	86993
#	112086
#	131701
#	147725
#	167372
#	183739
#	200708
#	220901
#	237181
#	256904
#	275043
#
# Disc length: 3968 seconds
#
# Revision: 0
# Processed by: cddbd v1.5.2PL0 Copyright (c) Steve Scherf et al.
# Submitted via: CDex 1.70beta2
#
DISCID=f40f7e0f
DTITLE=Various Artist - Bachata Sensual
DYEAR=2008
DGENRE=Salsa
TTITLE0=Pegame tu vivio - Antony Santos
TTITLE1=Por mi timides - Antony Santos
TTITLE2=Sone con ella - Antony Santos
TTITLE3=La loca - Raulin Rodriguez
TTITLE4=Soledad - Rauline Rodriguez
TTITLE5=Un hombre como tu - Luis Vargas and Caleria
TTITLE6=La cama tiene hormigas - Pepe Corniel
TTITLE7=Divinina madre - El Canario Del Amargue
TTITLE8=Traicionera - Luis Segura
TTITLE9=Mi nina - Teodoro Reyes
TTITLE10=Santo domingo - Luis Vargas
TTITLE11=Por mujeres como yu - Willy Castro
TTITLE12=Me falta todo - Edward Reyes
TTITLE13=Por elle - yao
TTITLE14=Tierra mala - Willy Castro
EXTD=YEAR: 2008
EXTT0=
EXTT1=
EXTT2=
EXTT3=
EXTT4=
EXTT5=
EXTT6=
EXTT7=
EXTT8=
EXTT9=
EXTT10=
EXTT11=
EXTT12=
EXTT13=
EXTT14=
PLAYORDER=
